<mxfile host="app.diagrams.net" modified="2020-11-09T05:18:42.255Z" agent="5.0 (Windows)" etag="zaMnC38L4zD_RG1HoVdA" version="13.9.1" type="github">
  <diagram name="Page-1" id="e7e014a7-5840-1c2e-5031-d8a46d1fe8dd">
    <mxGraphModel dx="1460" dy="617" grid="1" gridSize="10" guides="1" tooltips="1" connect="1" arrows="1" fold="1" page="1" pageScale="1" pageWidth="1169" pageHeight="826" background="#ffffff" math="0" shadow="0">
      <root>
        <mxCell id="0" />
        <mxCell id="1" parent="0" />
        <mxCell id="2" value="User" style="swimlane;whiteSpace=wrap;startSize=23;" parent="1" vertex="1">
          <mxGeometry x="166" y="128" width="280" height="612" as="geometry" />
        </mxCell>
        <mxCell id="5" value="" style="ellipse;shape=startState;fillColor=#000000;strokeColor=#ff0000;" parent="2" vertex="1">
          <mxGeometry x="100" y="40" width="30" height="30" as="geometry" />
        </mxCell>
        <mxCell id="6" value="" style="edgeStyle=elbowEdgeStyle;elbow=horizontal;verticalAlign=bottom;endArrow=open;endSize=8;strokeColor=#FF0000;endFill=1;rounded=0" parent="2" source="5" target="7" edge="1">
          <mxGeometry x="100" y="40" as="geometry">
            <mxPoint x="115" y="110" as="targetPoint" />
          </mxGeometry>
        </mxCell>
        <mxCell id="7" value="pilih menu &#xa;&#xa;pencatatan siswa" style="" parent="2" vertex="1">
          <mxGeometry x="60" y="110" width="110" height="50" as="geometry" />
        </mxCell>
        <mxCell id="8" value="pilih siswa untuk&#xa;diberikan pencatatan&#xa;" style="" parent="2" vertex="1">
          <mxGeometry x="60" y="192" width="120" height="50" as="geometry" />
        </mxCell>
        <mxCell id="10" value="tulis pencatatan" style="" parent="2" vertex="1">
          <mxGeometry x="60" y="422" width="110" height="50" as="geometry" />
        </mxCell>
        <mxCell id="16" value="klik tambah &#xa;kolom pencatatan" style="" parent="2" vertex="1">
          <mxGeometry x="60" y="313" width="110" height="50" as="geometry" />
        </mxCell>
        <mxCell id="3" value="Sistem" style="swimlane;whiteSpace=wrap;startSize=23;" parent="1" vertex="1">
          <mxGeometry x="444.5" y="128" width="280" height="612" as="geometry" />
        </mxCell>
        <mxCell id="3tTyX9vPhiig8Zc19oM0-66" style="edgeStyle=orthogonalEdgeStyle;rounded=0;orthogonalLoop=1;jettySize=auto;html=1;exitX=0.5;exitY=1;exitDx=0;exitDy=0;entryX=0.393;entryY=0.012;entryDx=0;entryDy=0;entryPerimeter=0;strokeColor=#FF0000;fillColor=#FF3333;" edge="1" parent="3" source="13" target="3tTyX9vPhiig8Zc19oM0-45">
          <mxGeometry relative="1" as="geometry" />
        </mxCell>
        <mxCell id="13" value="" style="ellipse;shape=startState;fillColor=#000000;strokeColor=#ff0000;" parent="3" vertex="1">
          <mxGeometry x="100.5" y="40" width="30" height="30" as="geometry" />
        </mxCell>
        <mxCell id="15" value="menampilkan &#xa;&#xa;pencatatan siswa" style="" parent="3" vertex="1">
          <mxGeometry x="60.5" y="192" width="110" height="50" as="geometry" />
        </mxCell>
        <mxCell id="3tTyX9vPhiig8Zc19oM0-45" value="request" style="rounded=0;whiteSpace=wrap;html=1;" vertex="1" parent="3">
          <mxGeometry x="66" y="90" width="120" height="60" as="geometry" />
        </mxCell>
        <mxCell id="3tTyX9vPhiig8Zc19oM0-55" value="&lt;div&gt;menampilkan kolom &lt;br&gt;&lt;/div&gt;&lt;div&gt;pencatatan&lt;br&gt;&lt;/div&gt;" style="rounded=0;whiteSpace=wrap;html=1;" vertex="1" parent="3">
          <mxGeometry x="55.5" y="308" width="120" height="60" as="geometry" />
        </mxCell>
        <mxCell id="3tTyX9vPhiig8Zc19oM0-58" value="request" style="rounded=0;whiteSpace=wrap;html=1;" vertex="1" parent="3">
          <mxGeometry x="55.5" y="417" width="120" height="60" as="geometry" />
        </mxCell>
        <mxCell id="4" value="Database" style="swimlane;whiteSpace=wrap" parent="1" vertex="1">
          <mxGeometry x="724.5" y="128" width="280" height="612" as="geometry" />
        </mxCell>
        <mxCell id="3tTyX9vPhiig8Zc19oM0-43" value="eksekusi" style="rounded=0;whiteSpace=wrap;html=1;" vertex="1" parent="4">
          <mxGeometry x="65.5" y="90" width="120" height="60" as="geometry" />
        </mxCell>
        <mxCell id="3tTyX9vPhiig8Zc19oM0-64" style="edgeStyle=orthogonalEdgeStyle;rounded=0;orthogonalLoop=1;jettySize=auto;html=1;entryX=0.5;entryY=0;entryDx=0;entryDy=0;strokeColor=#FF0000;fillColor=#FF3333;" edge="1" parent="4" source="3tTyX9vPhiig8Zc19oM0-59" target="38">
          <mxGeometry relative="1" as="geometry" />
        </mxCell>
        <mxCell id="3tTyX9vPhiig8Zc19oM0-59" value="simpan pencatatan siswa" style="rounded=0;whiteSpace=wrap;html=1;" vertex="1" parent="4">
          <mxGeometry x="65.5" y="417" width="120" height="60" as="geometry" />
        </mxCell>
        <mxCell id="38" value="" style="ellipse;shape=endState;fillColor=#000000;strokeColor=#ff0000" parent="4" vertex="1">
          <mxGeometry x="110.5" y="552" width="30" height="30" as="geometry" />
        </mxCell>
        <mxCell id="11" value="" style="endArrow=open;strokeColor=#FF0000;endFill=1;rounded=0;entryX=0.5;entryY=0;entryDx=0;entryDy=0;" parent="1" target="16" edge="1">
          <mxGeometry relative="1" as="geometry">
            <mxPoint x="280" y="370" as="sourcePoint" />
            <Array as="points">
              <mxPoint x="280" y="430" />
            </Array>
          </mxGeometry>
        </mxCell>
        <mxCell id="3tTyX9vPhiig8Zc19oM0-46" style="edgeStyle=orthogonalEdgeStyle;rounded=0;orthogonalLoop=1;jettySize=auto;html=1;entryX=0;entryY=0.75;entryDx=0;entryDy=0;strokeColor=#FF0000;fillColor=#FF3333;" edge="1" parent="1" source="7" target="3tTyX9vPhiig8Zc19oM0-45">
          <mxGeometry relative="1" as="geometry" />
        </mxCell>
        <mxCell id="3tTyX9vPhiig8Zc19oM0-47" style="edgeStyle=orthogonalEdgeStyle;rounded=0;orthogonalLoop=1;jettySize=auto;html=1;strokeColor=#FF0000;fillColor=#FF3333;" edge="1" parent="1" source="3tTyX9vPhiig8Zc19oM0-45" target="3tTyX9vPhiig8Zc19oM0-43">
          <mxGeometry relative="1" as="geometry" />
        </mxCell>
        <mxCell id="3tTyX9vPhiig8Zc19oM0-49" style="edgeStyle=orthogonalEdgeStyle;rounded=0;orthogonalLoop=1;jettySize=auto;html=1;exitX=0;exitY=0.5;exitDx=0;exitDy=0;entryX=1;entryY=0.5;entryDx=0;entryDy=0;strokeColor=#FF0000;fillColor=#FF3333;" edge="1" parent="1" source="15" target="8">
          <mxGeometry relative="1" as="geometry" />
        </mxCell>
        <mxCell id="3tTyX9vPhiig8Zc19oM0-56" style="edgeStyle=orthogonalEdgeStyle;rounded=0;orthogonalLoop=1;jettySize=auto;html=1;exitX=1;exitY=0.5;exitDx=0;exitDy=0;strokeColor=#FF0000;fillColor=#FF3333;" edge="1" parent="1" source="16" target="3tTyX9vPhiig8Zc19oM0-55">
          <mxGeometry relative="1" as="geometry" />
        </mxCell>
        <mxCell id="3tTyX9vPhiig8Zc19oM0-57" style="edgeStyle=orthogonalEdgeStyle;rounded=0;orthogonalLoop=1;jettySize=auto;html=1;entryX=0.5;entryY=0;entryDx=0;entryDy=0;strokeColor=#FF0000;fillColor=#FF3333;" edge="1" parent="1" source="3tTyX9vPhiig8Zc19oM0-55" target="10">
          <mxGeometry relative="1" as="geometry">
            <Array as="points">
              <mxPoint x="519" y="520" />
              <mxPoint x="281" y="520" />
            </Array>
          </mxGeometry>
        </mxCell>
        <mxCell id="3tTyX9vPhiig8Zc19oM0-60" style="edgeStyle=orthogonalEdgeStyle;rounded=0;orthogonalLoop=1;jettySize=auto;html=1;strokeColor=#FF0000;fillColor=#FF3333;" edge="1" parent="1" source="10" target="3tTyX9vPhiig8Zc19oM0-58">
          <mxGeometry relative="1" as="geometry" />
        </mxCell>
        <mxCell id="3tTyX9vPhiig8Zc19oM0-61" style="edgeStyle=orthogonalEdgeStyle;rounded=0;orthogonalLoop=1;jettySize=auto;html=1;strokeColor=#FF0000;fillColor=#FF3333;" edge="1" parent="1" source="3tTyX9vPhiig8Zc19oM0-58" target="3tTyX9vPhiig8Zc19oM0-59">
          <mxGeometry relative="1" as="geometry" />
        </mxCell>
        <mxCell id="3tTyX9vPhiig8Zc19oM0-67" style="edgeStyle=orthogonalEdgeStyle;rounded=0;orthogonalLoop=1;jettySize=auto;html=1;entryX=0.5;entryY=0;entryDx=0;entryDy=0;strokeColor=#FF0000;fillColor=#FF3333;" edge="1" parent="1" source="3tTyX9vPhiig8Zc19oM0-43" target="15">
          <mxGeometry relative="1" as="geometry">
            <Array as="points">
              <mxPoint x="850" y="300" />
              <mxPoint x="560" y="300" />
            </Array>
          </mxGeometry>
        </mxCell>
      </root>
    </mxGraphModel>
  </diagram>
</mxfile>
